# xmcd CD database file
#
# Track frame offsets:
#	187
#	24449
#	43124
#	60599
#	77699
#	95924
#	119179
#	135154
#	152624
#	171377
#	189612
#	204059
#	221437
#	241687
#	263999
#	280337
#
# Disc length: 4079 seconds
#
# Revision: 0
# Processed by: cddbd v1.5.1PL2 Copyright (c) Steve Scherf et al.
# Submitted via: CDex 1.51
#
DISCID=df0fed10
DTITLE=武田鉄矢 - 武田鉄矢 全曲集
DYEAR=1991
DGENRE=J ポップ
TTITLE0=天までとどけ
TTITLE1=唇をかみしめて
TTITLE2=男と女のラヴゲーム
TTITLE3=十年早いぞッ
TTITLE4=男と女のはしご酒
TTITLE5=声援
TTITLE6=夢がとまらない
TTITLE7=幸福ノススメ
TTITLE8=贈る言葉
TTITLE9=如月の風の中で
TTITLE10=少年期
TTITLE11=RONIN
TTITLE12=コスモス
TTITLE13=伝言
TTITLE14=もう春なんだなあ
TTITLE15=浪漫
EXTD=YEAR: 1991
EXTT0=
EXTT1=
EXTT2=
EXTT3=
EXTT4=
EXTT5=
EXTT6=
EXTT7=
EXTT8=
EXTT9=
EXTT10=
EXTT11=
EXTT12=
EXTT13=
EXTT14=
EXTT15=
PLAYORDER=
